<svg xmlns="http://www.w3.org/2000/svg" xmlns:xlink="http://www.w3.org/1999/xlink" id="Layer_1" width="57" height="59" x="0" y="0" enable-background="new 0 0 57 59" version="1.1" viewBox="0 0 57 59" xml:space="preserve"><g><path d="M48.582,4.917c1.655,0,3.001,1.346,3.001,3.001v43.165c0,1.655-1.346,3.001-3.001,3.001H8.418 c-1.655,0-3.001-1.346-3.001-3.001V7.918c0-1.655,1.346-3.001,3.001-3.001H48.582 M48.582,1.917H8.418 c-3.314,0-6.001,2.687-6.001,6.001v43.165c0,3.314,2.687,6.001,6.001,6.001h40.164c3.314,0,6.001-2.687,6.001-6.001V7.918 C54.583,4.603,51.896,1.917,48.582,1.917L48.582,1.917z"/></g><image width="204" height="204" overflow="visible" transform="matrix(0.2492 0 0 0.2492 66.8333 2.75)" xlink:href="A8D5ECBC.jpg"/><g><g><rect width="11.892" height="9.443" x="22.455" y="11.333"/><g><rect width="11.892" height="9.443" x="7.874" y="11.333"/><rect width="11.892" height="9.443" x="37.036" y="11.333"/></g></g><g><rect width="11.892" height="9.443" x="22.653" y="24.292"/><g><rect width="11.892" height="9.443" x="8.072" y="24.292"/><rect width="11.892" height="9.443" x="37.234" y="24.292"/></g></g><g><rect width="11.892" height="9.443" x="22.455" y="38.224"/><g><rect width="11.892" height="9.443" x="7.874" y="38.224"/><rect width="11.892" height="9.443" x="37.036" y="38.224"/></g></g></g></svg>